G04 DipTrace 2.4.0.2*
%INIO-ver3.topsoldermask.ger*%
%MOMM*%
%ADD18O,0.701X0.701*%
%ADD26R,1.2X0.7*%
%ADD33R,1.8X1.8*%
%ADD36R,1.2X1.0*%
%ADD41R,1.4X1.3*%
%ADD42R,1.3X1.4*%
%FSLAX53Y53*%
G04*
G71*
G90*
G75*
G01*
%LNTopMask*%
%LPD*%
D42*
X29500Y20780D3*
Y19080D3*
D41*
X14166Y20596D3*
X12466D3*
D42*
X29500Y15780D3*
Y14080D3*
X31500D3*
Y15780D3*
X33500Y14080D3*
Y15780D3*
X35500Y14080D3*
Y15780D3*
X37500Y14080D3*
Y15780D3*
X31500Y20780D3*
Y19080D3*
X33500Y20780D3*
Y19080D3*
X35500Y20780D3*
Y19080D3*
X37500Y20780D3*
Y19080D3*
G36*
X25100Y13830D2*
Y14630D1*
X27100D1*
Y13830D1*
X25100D1*
G37*
G36*
Y14630D2*
Y15430D1*
X27100D1*
Y14630D1*
X25100D1*
G37*
G36*
Y15430D2*
Y16230D1*
X27100D1*
Y15430D1*
X25100D1*
G37*
G36*
Y16230D2*
Y17030D1*
X27100D1*
Y16230D1*
X25100D1*
G37*
G36*
Y17030D2*
Y17830D1*
X27100D1*
Y17030D1*
X25100D1*
G37*
G36*
Y17830D2*
Y18630D1*
X27100D1*
Y17830D1*
X25100D1*
G37*
G36*
Y18630D2*
Y19430D1*
X27100D1*
Y18630D1*
X25100D1*
G37*
G36*
Y19430D2*
Y20230D1*
X27100D1*
Y19430D1*
X25100D1*
G37*
G36*
X24300Y22230D2*
X25100D1*
Y20230D1*
X24300D1*
Y22230D1*
G37*
G36*
X23500D2*
X24300D1*
Y20230D1*
X23500D1*
Y22230D1*
G37*
G36*
X22700D2*
X23500D1*
Y20230D1*
X22700D1*
Y22230D1*
G37*
G36*
X21900D2*
X22700D1*
Y20230D1*
X21900D1*
Y22230D1*
G37*
G36*
X21100D2*
X21900D1*
Y20230D1*
X21100D1*
Y22230D1*
G37*
G36*
X20300D2*
X21100D1*
Y20230D1*
X20300D1*
Y22230D1*
G37*
G36*
X19500D2*
X20300D1*
Y20230D1*
X19500D1*
Y22230D1*
G37*
G36*
X18700D2*
X19500D1*
Y20230D1*
X18700D1*
Y22230D1*
G37*
G36*
X16700Y19430D2*
Y20230D1*
X18700D1*
Y19430D1*
X16700D1*
G37*
G36*
Y18630D2*
Y19430D1*
X18700D1*
Y18630D1*
X16700D1*
G37*
G36*
Y17830D2*
Y18630D1*
X18700D1*
Y17830D1*
X16700D1*
G37*
G36*
Y17030D2*
Y17830D1*
X18700D1*
Y17030D1*
X16700D1*
G37*
G36*
Y16230D2*
Y17030D1*
X18700D1*
Y16230D1*
X16700D1*
G37*
G36*
Y15430D2*
Y16230D1*
X18700D1*
Y15430D1*
X16700D1*
G37*
G36*
Y14630D2*
Y15430D1*
X18700D1*
Y14630D1*
X16700D1*
G37*
G36*
Y13830D2*
Y14630D1*
X18700D1*
Y13830D1*
X16700D1*
G37*
G36*
X18700D2*
X19500D1*
Y11830D1*
X18700D1*
Y13830D1*
G37*
G36*
X19500D2*
X20300D1*
Y11830D1*
X19500D1*
Y13830D1*
G37*
G36*
X20300D2*
X21100D1*
Y11830D1*
X20300D1*
Y13830D1*
G37*
G36*
X21100D2*
X21900D1*
Y11830D1*
X21100D1*
Y13830D1*
G37*
G36*
X21900D2*
X22700D1*
Y11830D1*
X21900D1*
Y13830D1*
G37*
G36*
X22700D2*
X23500D1*
Y11830D1*
X22700D1*
Y13830D1*
G37*
G36*
X23500D2*
X24300D1*
Y11830D1*
X23500D1*
Y13830D1*
G37*
G36*
X24300D2*
X25100D1*
Y11830D1*
X24300D1*
Y13830D1*
G37*
D36*
X12339Y15460D3*
X14239D3*
Y18560D3*
D26*
Y16310D3*
D36*
X12339Y18560D3*
D26*
X14239Y17710D3*
X12339Y16310D3*
Y17010D3*
Y17710D3*
X14239Y17010D3*
D18*
X36730Y24618D3*
Y26317D3*
D33*
X11800Y37600D3*
X15000D3*
Y33700D3*
X11800D3*
Y29800D3*
X15000D3*
Y25900D3*
X11800D3*
X20800D3*
X17600D3*
Y29800D3*
X20800D3*
Y33700D3*
X17600D3*
Y37600D3*
X20800D3*
X23400Y35650D3*
X26600D3*
Y27850D3*
X23400D3*
X32400Y37600D3*
X29200D3*
Y33700D3*
X32400D3*
X29200Y29800D3*
X32400D3*
Y25900D3*
X29200D3*
X35000D3*
X38200D3*
Y29800D3*
X35000D3*
Y33700D3*
X38200D3*
Y37600D3*
X35000D3*
M02*
