M48
METRIC,0000.00
T01C0.486
T02C0.7
%
T01
X+002426Y+001583
X+002340Y+001486
X+002260Y+001607
X+002070Y+001486
X+001926Y+001486
X+001494Y+001364
X+001542Y+002000
X+001476Y+002180
X+001331Y+002180
X+001770Y+002079
X+002310Y+001849
X+002454Y+001929
X+002698Y+002180
X+002820Y+002100
X+002829Y+001903
X+002775Y+001743
X+002949Y+001780
X+003150Y+001782
X+003550Y+001782
X+003750Y+002204
X+003109Y+002262
X+002962Y+002342
X+003094Y+002590
X+003394Y+002790
X+003066Y+002980
X+003180Y+003202
X+003580Y+003554
X+003688Y+003944
X+001676Y+003614
X+001396Y+003614
X+001396Y+002791
X+002981Y+001247
X+003266Y+001282
X+003352Y+001173
X+003630Y+001173
X+003839Y+001180
T02
X+003673Y+002462
X+003673Y+002632
T00
M30
